<mxfile host="app.diagrams.net" modified="2023-10-16T18:54:26.834Z" agent="Mozilla/5.0 (Macintosh; Intel Mac OS X 10.15; rv:109.0) Gecko/20100101 Firefox/117.0" version="22.0.4" etag="upbHCV2ybNmlyvwJWL7z" type="github">
  <diagram name="Page-1" id="KBqmUrSEoD2vWCocJs6R">
    <mxGraphModel>
      <root>
        <mxCell id="0" />
        <mxCell id="1" parent="0" />
      </root>
    </mxGraphModel>
  </diagram>
</mxfile>
